<?xml version="1.0" encoding="UTF-8" standalone="no"?>
<svg width="512px" height="512px" viewBox="0 0 512 512" version="1.1" xmlns="http://www.w3.org/2000/svg" xmlns:xlink="http://www.w3.org/1999/xlink">
    <!-- Generator: Sketch 3.6.1 (26313) - http://www.bohemiancoding.com/sketch -->
    <title>1457120567_07_Anchor</title>
    <desc>Created with Sketch.</desc>
    <defs></defs>
    <g id="Page-1" stroke="none" stroke-width="1" fill="none" fill-rule="evenodd">
        <g id="1457120567_07_Anchor" fill="#8DC6FF">
            <path d="M472.934,408.914 C425.87,472.678 343.936,512.739 256,511.989 C168.063,512.739 86.128,472.677 39.065,408.914 L0.005,447.991 L0.005,319.994 L128.002,319.994 L92.814,355.164 C121.034,401.883 168.252,435.46 224,444.976 L224,251.463 C168.877,237.198 128.002,187.574 128.002,127.997 C128.002,57.312 185.314,0 256,0 C326.685,0 383.997,57.312 383.997,127.998 C383.997,187.575 343.122,237.199 288,251.464 L288,444.976 C343.747,435.46 390.967,401.883 419.184,355.164 L383.997,319.994 L511.993,319.994 L511.993,447.991 L472.934,408.914 L472.934,408.914 Z M319.997,127.998 C319.997,92.655 291.344,63.999 256,63.999 C220.655,63.999 192.001,92.655 192.001,127.998 C192.001,163.341 220.655,191.997 256,191.997 C291.344,191.996 319.997,163.34 319.997,127.998 L319.997,127.998 Z" id="Shape"></path>
        </g>
    </g>
</svg>