<?xml version="1.0" encoding="utf-8"?>
<!-- Generator: Adobe Illustrator 16.0.0, SVG Export Plug-In . SVG Version: 6.00 Build 0)  -->
<!DOCTYPE svg PUBLIC "-//W3C//DTD SVG 1.1//EN" "http://www.w3.org/Graphics/SVG/1.1/DTD/svg11.dtd">
<svg version="1.1" id="Layer_1" xmlns="http://www.w3.org/2000/svg" xmlns:xlink="http://www.w3.org/1999/xlink" x="0px" y="0px"
	 width="20px" height="50px" viewBox="0 0 20 50" enable-background="new 0 0 20 50" xml:space="preserve">
<path fill="#242424" d="M9.25,2.117C6.688,8.075,5.238,8.604,2.473,11.76c-0.574,0.615,0.29,1.528,0.938,0.976
	c2.274-1.949,4.205-3.412,5.996-5.807c0.351,10.608-0.609,16.328-2.163,23.163c-2.045,7.699-4.009,11.27-6.927,16.709
	c-0.289,0.541,0.516,0.988,0.824,0.461C8.112,35.328,11.816,25.203,11.894,6.909c1.924,2.343,4.041,4.27,6.901,5.515
	c0.788,0.332,1.345-0.798,0.601-1.214c-3.684-2.092-5.782-5.478-7.778-9.201l0,0C10.867,0.921,9.631,1.232,9.25,2.117z"/>
</svg>
