<?xml version="1.0" encoding="UTF-8" standalone="no"?>
<svg width="24px" height="24px" viewBox="0 0 24 24" version="1.1" xmlns="http://www.w3.org/2000/svg" xmlns:xlink="http://www.w3.org/1999/xlink">
    <!-- Generator: Sketch 3.6.1 (26313) - http://www.bohemiancoding.com/sketch -->
    <title>Fill 436 + Fill 437</title>
    <desc>Created with Sketch.</desc>
    <defs></defs>
    <g id="Page-1" stroke="none" stroke-width="1" fill="none" fill-rule="evenodd">
        <g id="Fill-436-+-Fill-437" fill="#86BDF7">
            <path d="M17,11.508 L12.5,11.508 L12.5,7.008 C12.5,6.732 12.276,6.508 12,6.508 C11.724,6.508 11.5,6.732 11.5,7.008 L11.5,11.508 L7,11.508 C6.724,11.508 6.5,11.732 6.5,12.008 C6.5,12.284 6.724,12.508 7,12.508 L11.5,12.508 L11.5,17.008 C11.5,17.284 11.724,17.508 12,17.508 C12.276,17.508 12.5,17.284 12.5,17.008 L12.5,12.508 L17,12.508 C17.276,12.508 17.5,12.284 17.5,12.008 C17.5,11.732 17.276,11.508 17,11.508" id="Fill-436"></path>
            <path d="M12,0.008 C5.373,0.008 0,5.38 0,12.008 C0,18.635 5.373,24.007 12,24.008 C18.627,24.007 23.999,18.635 23.999,12.008 C23.999,5.38 18.627,0.008 12,0.008 L12,0.008 Z M19.778,19.786 C17.786,21.777 15.039,23.008 12,23.008 C8.961,23.008 6.214,21.777 4.222,19.786 C2.231,17.794 1,15.047 1,12.008 C1,8.969 2.231,6.222 4.222,4.23 C6.214,2.238 8.961,1.008 12,1.008 C15.039,1.008 17.786,2.238 19.778,4.23 C21.769,6.222 23,8.969 23,12.008 C23,15.047 21.769,17.794 19.778,19.786 L19.778,19.786 Z" id="Fill-437"></path>
        </g>
    </g>
</svg>