<?xml version="1.0" encoding="UTF-8" standalone="no"?>
<svg width="26px" height="26px" viewBox="0 0 26 26" version="1.1" xmlns="http://www.w3.org/2000/svg" xmlns:xlink="http://www.w3.org/1999/xlink">
    <!-- Generator: Sketch 3.6.1 (26313) - http://www.bohemiancoding.com/sketch -->
    <title>Fill 162 + Fill 163</title>
    <desc>Created with Sketch.</desc>
    <defs></defs>
    <g id="Page-1" stroke="none" stroke-width="1" fill="none" fill-rule="evenodd">
        <g id="Fill-162-+-Fill-163" transform="translate(1.000000, 1.000000)">
            <circle id="Oval-1" stroke="#8DC6FF" fill="#8DC6FF" cx="12" cy="12" r="12"></circle>
            <path d="M12.021,19.372 C12.848,19.372 13.521,18.699 13.521,17.872 C13.521,17.045 12.848,16.372 12.021,16.372 C11.194,16.372 10.521,17.045 10.521,17.872 C10.521,18.699 11.194,19.372 12.021,19.372" id="Fill-162" fill="#8DC6FF"></path>
            <path d="M12,0.018 C5.383,0.018 0,5.401 0,12.018 C0,18.635 5.383,24.018 12,24.018 C18.617,24.018 24,18.635 24,12.018 C24,5.401 18.617,0.018 12,0.018 L12,0.018 Z M7.048,7.089 C6.95,7.187 6.823,7.235 6.695,7.235 C6.567,7.235 6.439,7.187 6.341,7.089 L5.634,6.382 C5.438,6.186 5.438,5.87 5.634,5.675 C5.829,5.479 6.146,5.479 6.341,5.675 L7.048,6.382 C7.243,6.577 7.243,6.894 7.048,7.089 L7.048,7.089 Z M4.997,12.018 C4.997,12.294 4.774,12.518 4.497,12.518 L3.497,12.518 C3.221,12.518 2.997,12.294 2.997,12.018 C2.997,11.742 3.221,11.518 3.497,11.518 L4.497,11.518 C4.774,11.518 4.997,11.742 4.997,12.018 L4.997,12.018 Z M11.997,3.039 C12.274,3.039 12.497,3.262 12.497,3.539 L12.497,4.539 C12.497,4.815 12.274,5.039 11.997,5.039 C11.721,5.039 11.497,4.815 11.497,4.539 L11.497,3.539 C11.497,3.262 11.721,3.039 11.997,3.039 L11.997,3.039 Z M12.021,15.372 C12.198,15.372 12.371,15.392 12.538,15.427 L15.396,10.255 C15.528,10.013 15.832,9.926 16.075,10.06 C16.317,10.193 16.404,10.497 16.271,10.739 L13.457,15.832 C14.098,16.285 14.52,17.029 14.52,17.872 C14.52,19.25 13.4,20.372 12.021,20.372 C10.641,20.372 9.521,19.25 9.521,17.872 C9.521,16.494 10.641,15.372 12.021,15.372 L12.021,15.372 Z M16.948,6.382 L17.654,5.675 C17.85,5.479 18.166,5.479 18.361,5.675 C18.557,5.87 18.557,6.186 18.361,6.382 L17.654,7.089 C17.557,7.187 17.429,7.235 17.301,7.235 C17.173,7.235 17.045,7.187 16.948,7.089 C16.752,6.894 16.752,6.577 16.948,6.382 L16.948,6.382 Z M18.997,12.018 C18.997,11.742 19.221,11.518 19.497,11.518 L20.497,11.518 C20.773,11.518 20.997,11.742 20.997,12.018 C20.997,12.294 20.773,12.518 20.497,12.518 L19.497,12.518 C19.221,12.518 18.997,12.294 18.997,12.018 L18.997,12.018 Z" id="Fill-163" fill="#FAFCFF"></path>
        </g>
    </g>
</svg>